<svg aria-hidden="true" style="position: absolute; width: 0; height: 0; overflow: hidden;" version="1.1" xmlns="http://www.w3.org/2000/svg" xmlns:xlink="http://www.w3.org/1999/xlink">
<defs>

<symbol id="shiba-instagram" viewBox="0 0 32 32">
<path d="M15.996 10.918c-2.798 0-5.082 2.284-5.082 5.082s2.283 5.081 5.082 5.081c2.798 0 5.081-2.283 5.081-5.082s-2.283-5.082-5.082-5.082zM31.237 16c0-2.104 0.019-4.189-0.099-6.29-0.118-2.44-0.675-4.605-2.459-6.389-1.788-1.788-3.949-2.341-6.389-2.459-2.104-0.118-4.19-0.099-6.29-0.099-2.104 0-4.189-0.019-6.29 0.099-2.44 0.118-4.605 0.675-6.389 2.459-1.788 1.788-2.341 3.949-2.459 6.389-0.118 2.104-0.099 4.19-0.099 6.29s-0.019 4.189 0.099 6.29c0.118 2.44 0.675 4.605 2.459 6.389 1.788 1.788 3.949 2.341 6.389 2.459 2.104 0.118 4.189 0.099 6.29 0.099 2.104 0 4.189 0.019 6.29-0.099 2.44-0.118 4.605-0.675 6.389-2.459 1.788-1.788 2.341-3.949 2.459-6.389 0.122-2.1 0.099-4.186 0.099-6.29zM15.996 23.819c-4.327 0-7.819-3.492-7.819-7.819s3.492-7.819 7.819-7.819c4.327 0 7.819 3.492 7.819 7.819s-3.492 7.819-7.819 7.819zM24.135 9.687c-1.010 0-1.826-0.816-1.826-1.826s0.816-1.826 1.826-1.826c1.010 0 1.826 0.816 1.826 1.826 0 0.24-0.047 0.477-0.138 0.699s-0.226 0.423-0.396 0.593c-0.17 0.17-0.371 0.304-0.593 0.396s-0.459 0.139-0.699 0.138z"></path>
</symbol>

<symbol id="shiba-M" viewBox="0 0 32 32">
<path d="M16 0.762c-8.415 0-15.238 6.823-15.238 15.238s6.823 15.238 15.238 15.238c8.415 0 15.238-6.823 15.238-15.238s-6.823-15.238-15.238-15.238zM24.707 9.391l-1.388 1.33c-0.122 0.092-0.18 0.242-0.156 0.388v9.786c-0.024 0.15 0.034 0.299 0.156 0.388l1.361 1.33v0.296h-6.83v-0.282l1.405-1.364c0.139-0.14 0.139-0.18 0.139-0.388v-7.918l-3.912 9.918h-0.527l-4.551-9.918v6.65c-0.041 0.279 0.058 0.561 0.255 0.762l1.83 2.214v0.296h-5.197v-0.296l1.83-2.214c0.096-0.1 0.168-0.22 0.21-0.353s0.051-0.272 0.029-0.409v-7.687c0.024-0.214-0.058-0.422-0.221-0.568l-1.626-1.959v-0.296h5.051l3.898 8.554 3.432-8.548h4.813v0.289z"></path>
</symbol>

<symbol id="shiba-facebook" viewBox="0 0 32 32">
<path d="M0 15.891c0 7.856 5.706 14.389 13.169 15.714v-11.413h-3.951v-4.389h3.951v-3.512c0-3.951 2.546-6.145 6.146-6.145 1.14 0 2.37 0.175 3.511 0.35v4.039h-2.019c-1.932 0-2.37 0.965-2.37 2.195v3.072h4.214l-0.702 4.389h-3.512v11.413c7.463-1.325 13.169-7.856 13.169-15.714 0-8.74-7.111-15.891-15.803-15.891s-15.802 7.151-15.802 15.891z"></path>
</symbol>

<symbol id="shiba-reddit" viewBox="0 0 32 32">
<path d="M31.238 16c0-8.415-6.823-15.238-15.238-15.238s-15.238 6.823-15.238 15.238c0 8.415 6.823 15.238 15.238 15.238s15.238-6.823 15.238-15.238zM25.762 14.804c0.246 0.352 0.386 0.767 0.401 1.196 0.007 0.42-0.106 0.833-0.324 1.192s-0.534 0.648-0.91 0.835c0.018 0.224 0.018 0.447 0 0.671 0 3.413-3.977 6.187-8.884 6.187s-8.884-2.773-8.884-6.187c-0.017-0.223-0.017-0.447 0-0.671-0.291-0.136-0.548-0.333-0.755-0.578s-0.359-0.532-0.444-0.841c-0.086-0.309-0.103-0.633-0.052-0.95s0.171-0.618 0.35-0.885c0.179-0.266 0.414-0.49 0.688-0.657s0.581-0.272 0.9-0.309c0.319-0.037 0.642-0.004 0.947 0.096s0.585 0.264 0.82 0.483c1.756-1.191 3.822-1.842 5.943-1.874l1.128-5.288c0.013-0.061 0.037-0.119 0.073-0.171s0.080-0.096 0.133-0.13c0.052-0.034 0.111-0.057 0.173-0.068s0.125-0.010 0.186 0.003l3.733 0.747c0.182-0.313 0.47-0.551 0.812-0.671s0.716-0.114 1.054 0.016c0.338 0.131 0.619 0.377 0.791 0.696s0.226 0.689 0.15 1.043-0.275 0.67-0.562 0.891c-0.288 0.221-0.644 0.332-1.006 0.313s-0.706-0.166-0.969-0.415c-0.263-0.249-0.429-0.584-0.468-0.944l-3.261-0.686-0.991 4.754c2.096 0.045 4.133 0.696 5.867 1.874 0.231-0.223 0.508-0.392 0.812-0.498s0.626-0.144 0.945-0.113c0.32 0.031 0.628 0.131 0.906 0.293s0.516 0.382 0.7 0.645zM11.182 16.677c-0.111 0.166-0.189 0.353-0.228 0.549s-0.039 0.398-0 0.595c0.079 0.396 0.312 0.745 0.648 0.97s0.748 0.306 1.144 0.228c0.196-0.039 0.383-0.116 0.55-0.228s0.309-0.254 0.421-0.421c0.225-0.336 0.306-0.748 0.228-1.144s-0.312-0.745-0.648-0.97c-0.336-0.225-0.748-0.306-1.144-0.228s-0.745 0.312-0.97 0.648zM16.015 22.888c1.352 0.056 2.683-0.297 3.764-1.112 0.081-0.079 0.127-0.186 0.128-0.299s-0.042-0.222-0.121-0.302c-0.039-0.040-0.086-0.072-0.137-0.094s-0.107-0.034-0.163-0.035c-0.113-0.001-0.222 0.042-0.302 0.121-0.925 0.663-2.048 0.991-3.185 0.93-1.135 0.051-2.253-0.288-3.169-0.96-0.079-0.065-0.179-0.098-0.281-0.093s-0.198 0.048-0.271 0.12-0.115 0.169-0.12 0.271c-0.005 0.102 0.028 0.202 0.093 0.281 1.081 0.815 2.411 1.229 3.764 1.173zM18.658 18.852c0.251 0.168 0.531 0.317 0.832 0.317 0.207 0.002 0.412-0.037 0.602-0.117s0.363-0.197 0.507-0.345c0.144-0.148 0.256-0.324 0.33-0.517s0.107-0.399 0.099-0.606c-0-0.263-0.068-0.522-0.198-0.751s-0.317-0.42-0.543-0.556c-0.226-0.135-0.483-0.21-0.746-0.216s-0.523 0.055-0.756 0.18c-0.232 0.124-0.428 0.306-0.569 0.529s-0.222 0.477-0.235 0.74c-0.013 0.263 0.042 0.525 0.161 0.76s0.295 0.436 0.514 0.582z"></path>
</symbol>

<symbol id="ask-menu-open" viewBox="0 0 53 32">
<path d="M24.152 30.514c1.389 1.389 3.64 1.389 5.028 0l22.628-22.627c1.388-1.389 1.388-3.64 0-5.028s-3.64-1.389-5.028 0l-20.113 20.113-20.113-20.113c-1.389-1.389-3.64-1.389-5.028 0s-1.389 3.64 0 5.028l22.627 22.627zM23.111 24.889v3.111h7.111v-3.111h-7.111z"></path>
</symbol>

<symbol id="shiba-twitter" viewBox="0 0 39 32">
<path d="M37.841 4.377c-1.378 0.611-2.858 1.024-4.413 1.21 1.605-0.961 2.806-2.474 3.379-4.256-1.508 0.897-3.159 1.528-4.88 1.866-1.158-1.237-2.691-2.057-4.362-2.332s-3.386 0.009-4.878 0.809c-1.493 0.8-2.68 2.071-3.377 3.615s-0.866 3.276-0.479 4.926c-3.056-0.154-6.046-0.948-8.775-2.333s-5.137-3.328-7.067-5.704c-0.66 1.139-1.039 2.46-1.039 3.867-0.001 1.266 0.311 2.513 0.907 3.63s1.459 2.069 2.511 2.773c-1.22-0.039-2.414-0.369-3.481-0.963v0.099c-0 1.776 0.614 3.498 1.738 4.872s2.688 2.318 4.428 2.67c-1.132 0.307-2.319 0.352-3.471 0.132 0.491 1.528 1.447 2.865 2.734 3.822s2.842 1.488 4.446 1.518c-2.722 2.139-6.085 3.299-9.546 3.294-0.613 0-1.226-0.036-1.835-0.107 3.513 2.261 7.603 3.46 11.78 3.456 14.139 0 21.868-11.719 21.868-21.883 0-0.33-0.008-0.664-0.023-0.994 1.503-1.088 2.801-2.436 3.832-3.979l0.003-0.005z"></path>
</symbol>

<symbol id="shiba-telegram" viewBox="0 0 38 32">
<path d="M34.471 1.031c0 0 3.383-1.319 3.1 1.884-0.093 1.319-0.939 5.937-1.597 10.93l-2.255 14.794c0 0-0.188 2.167-1.88 2.544s-4.228-1.319-4.698-1.696c-0.376-0.283-7.048-4.524-9.397-6.596-0.658-0.566-1.411-1.696 0.094-3.015l9.866-9.423c1.128-1.13 2.255-3.769-2.443-0.565l-13.157 8.951c0 0-1.504 0.943-4.322 0.095l-6.109-1.885c0 0-2.255-1.413 1.598-2.826 9.398-4.429 20.957-8.951 31.2-13.192h0.002z"></path>
</symbol>

<symbol id="shiba-burger" viewBox="0 0 39 32">
<path stroke-linejoin="miter" stroke-linecap="round" stroke-miterlimit="4" stroke-width="4.5714" d="M2.286 2.286h34.286"></path>
<path stroke-linejoin="miter" stroke-linecap="round" stroke-miterlimit="4" stroke-width="4.5714" d="M2.286 16h34.286"></path>
<path stroke-linejoin="miter" stroke-linecap="round" stroke-miterlimit="4" stroke-width="4.5714" d="M2.286 29.714h34.286"></path>
</symbol>

<symbol id="shiba-icon" viewBox="0 0 31 32">
<path fill="#000072" style="fill: var(--color1, #000072)" opacity="0.027000810008100035" d="M31.111 30.77c0 0.541-6.964 0.98-15.556 0.98s-15.556-0.439-15.556-0.98c0-0.541 6.964-0.98 15.556-0.98s15.556 0.439 15.556 0.98z"></path>
<path fill="#b11313" style="fill: var(--color2, #b11313)" d="M28.649 29.544c-0.617 0.703-1.523 1.099-2.469 1.099h-21.251c-0.946 0-1.851-0.396-2.469-1.099-0.341-0.389-0.593-0.822-0.763-1.264-0.001 0-0.001 0-0.001-0.001-0.533-1.39-0.262-2.881 0.589-3.418 1.429-0.902 2.531 0.2 2.531 0.2 0.122-0.281 0.287-0.525 0.472-0.734 0.696-0.79 1.672-1.090 1.672-1.090-0.53-2.987 0.654-5.694 0.654-5.694s2.917 2.165 7.94 2.165c5.023 0 7.94-2.165 7.94-2.165s1.184 2.707 0.654 5.694c0 0 1.562 0.482 2.143 1.825 0 0 1.102-1.102 2.531-0.2 1.122 0.708 1.237 3.077-0.174 4.683z"></path>
<path fill="#000072" style="fill: var(--color1, #000072)" opacity="0.027000810008100035" d="M5.668 27.815c0.197-1.872-0.847-2.68-0.847-2.68 0.122-0.281 0.287-0.525 0.472-0.734 1.62 1.903 0.375 3.414 0.375 3.414z"></path>
<path fill="#000072" style="fill: var(--color1, #000072)" opacity="0.027000810008100035" d="M25.453 27.815c-0.197-1.872 0.847-2.68 0.847-2.68-0.122-0.281-0.287-0.525-0.472-0.734-1.62 1.903-0.375 3.414-0.375 3.414z"></path>
<path fill="#000072" style="fill: var(--color1, #000072)" opacity="0.027000810008100035" d="M25.619 29.386c-0.151-0.037-0.307-0.050-0.462-0.033-0.221 0.024-0.601 0.061-1.158 0.102-0.839 0.062-1.571-0.557-1.629-1.382-0.025-0.354 0.029-0.629 0.049-0.714-0.219 0.92-0.624 1.767-0.87 2.232-1.252 0.051-2.838 0.093-4.799 0.105-0.106-3.722 2.095-7.211 2.095-7.211-3.373 2.65-6.569 0-6.569 0 2.225 3.88 2.11 7.050 2.11 7.050l0.375 0.164c-2.141-0.009-3.854-0.053-5.188-0.107-0.247-0.465-0.651-1.312-0.87-2.232 0.020 0.089 0.078 0.382 0.046 0.757-0.070 0.807-0.803 1.399-1.625 1.339-0.558-0.041-0.938-0.078-1.159-0.102-0.155-0.017-0.311-0.004-0.462 0.033-2.418 0.591-3.758-0.981-3.801-1.033 0.17 0.443 0.422 0.876 0.763 1.264 0.617 0.703 1.523 1.099 2.469 1.099h21.256c0.946 0 1.851-0.396 2.469-1.099 0.341-0.389 0.593-0.822 0.763-1.264-0.043 0.052-1.383 1.624-3.801 1.033z"></path>
<path fill="#000072" style="fill: var(--color1, #000072)" opacity="0.027000810008100035" d="M8.698 27.359c-0.004-0.018-0.007-0.028-0.007-0.028 0.002 0.009 0.005 0.019 0.007 0.028z"></path>
<path fill="#000072" style="fill: var(--color1, #000072)" opacity="0.027000810008100035" d="M22.418 27.359c0.002-0.009 0.005-0.019 0.007-0.028 0 0-0.003 0.010-0.007 0.028z"></path>
<path fill="#000072" style="fill: var(--color1, #000072)" d="M15.552 30.5h10.628c0.892 0 1.731-0.373 2.302-1.023 0.738-0.84 1.102-2.004 0.95-3.037-0.089-0.605-0.355-1.087-0.728-1.323-1.264-0.798-2.215 0.13-2.255 0.17-0.051 0.052-0.126 0.075-0.198 0.061s-0.133-0.061-0.162-0.128c-0.536-1.237-1.992-1.698-2.007-1.703-0.105-0.032-0.17-0.137-0.151-0.243 0.422-2.374-0.275-4.595-0.542-5.323-0.799 0.513-3.547 2.048-7.835 2.048s-7.036-1.535-7.835-2.048c-0.267 0.728-0.963 2.949-0.542 5.323 0.019 0.107-0.046 0.211-0.151 0.243-0.014 0.005-1.473 0.471-2.007 1.703-0.029 0.066-0.089 0.114-0.162 0.128s-0.147-0.009-0.198-0.061c-0.040-0.039-0.999-0.963-2.255-0.17-0.374 0.236-0.639 0.718-0.728 1.323-0.152 1.033 0.212 2.197 0.95 3.037 0.571 0.65 1.411 1.023 2.302 1.023h10.623zM26.18 30.932h-21.251c-1.020 0-1.98-0.428-2.635-1.173-0.819-0.932-1.222-2.228-1.052-3.381 0.109-0.739 0.438-1.317 0.926-1.625 1.162-0.733 2.142-0.255 2.573 0.044 0.546-0.983 1.56-1.465 1.974-1.627-0.461-2.943 0.649-5.528 0.698-5.639 0.027-0.061 0.080-0.107 0.146-0.124s0.135-0.004 0.189 0.037c0.029 0.021 2.925 2.122 7.807 2.122s7.779-2.101 7.808-2.122c0.054-0.040 0.124-0.053 0.189-0.036s0.119 0.063 0.146 0.124c0.048 0.111 1.159 2.695 0.698 5.639 0.414 0.163 1.428 0.645 1.974 1.627 0.431-0.298 1.411-0.778 2.573-0.044 0.488 0.308 0.817 0.885 0.926 1.625 0.17 1.153-0.233 2.449-1.053 3.381-0.655 0.746-1.616 1.173-2.635 1.173z"></path>
<path fill="#000072" style="fill: var(--color1, #000072)" d="M4.942 24.959c0.024 0.016 0.035 0.025 0.052 0.037s0.029 0.023 0.043 0.034c0.029 0.023 0.053 0.047 0.079 0.070s0.048 0.049 0.072 0.073c0.024 0.025 0.046 0.050 0.068 0.076 0.088 0.103 0.162 0.215 0.227 0.329 0.132 0.23 0.219 0.478 0.28 0.727 0.059 0.251 0.081 0.505 0.081 0.756 0 0.125-0.014 0.251-0.022 0.374-0.019 0.124-0.040 0.246-0.066 0.367-0.005 0.023-0.028 0.038-0.052 0.033-0.018-0.004-0.031-0.018-0.034-0.034l-0-0.003c-0.022-0.121-0.035-0.241-0.051-0.36l-0.032-0.177c-0.012-0.058-0.016-0.117-0.032-0.174-0.030-0.115-0.045-0.23-0.083-0.341-0.016-0.056-0.029-0.112-0.047-0.167l-0.057-0.163c-0.078-0.215-0.174-0.42-0.289-0.61-0.030-0.047-0.058-0.095-0.091-0.139l-0.047-0.068-0.051-0.064c-0.032-0.044-0.069-0.083-0.104-0.123-0.018-0.019-0.036-0.040-0.054-0.057-0.009-0.009-0.018-0.019-0.026-0.026s-0.019-0.018-0.020-0.020l-0.048-0.094c-0.051-0.101-0.009-0.223 0.093-0.273 0.069-0.034 0.149-0.026 0.209 0.014z"></path>
<path fill="#000072" style="fill: var(--color1, #000072)" d="M26.412 25.311c-0.001 0.002-0.013 0.013-0.020 0.020s-0.017 0.018-0.026 0.026c-0.018 0.017-0.036 0.038-0.054 0.056-0.035 0.040-0.072 0.079-0.104 0.123l-0.050 0.064-0.047 0.068c-0.033 0.044-0.061 0.092-0.091 0.139-0.115 0.19-0.211 0.395-0.289 0.61l-0.057 0.163c-0.018 0.055-0.030 0.111-0.047 0.167-0.037 0.111-0.053 0.227-0.083 0.341-0.016 0.057-0.020 0.116-0.032 0.175l-0.032 0.176c-0.016 0.119-0.030 0.238-0.051 0.36l-0.001 0.003c-0.004 0.023-0.027 0.039-0.050 0.035-0.018-0.003-0.031-0.017-0.035-0.033-0.026-0.121-0.047-0.243-0.066-0.367-0.009-0.124-0.023-0.249-0.023-0.374 0-0.251 0.022-0.506 0.081-0.756 0.061-0.25 0.148-0.497 0.28-0.727 0.066-0.115 0.14-0.226 0.227-0.329 0.021-0.026 0.044-0.052 0.068-0.076s0.046-0.050 0.072-0.073c0.026-0.024 0.050-0.047 0.079-0.070 0.014-0.011 0.027-0.022 0.043-0.034 0.017-0.012 0.028-0.021 0.052-0.037 0.095-0.063 0.224-0.039 0.288 0.054 0.044 0.063 0.047 0.141 0.014 0.205l-0.048 0.094z"></path>
<path fill="#000072" style="fill: var(--color1, #000072)" d="M7.181 23.285l0.018 0.173 0.022 0.193c0.008 0.066 0.018 0.132 0.024 0.201s0.010 0.141 0.007 0.218l-0 0c-0.001 0.012-0.011 0.022-0.023 0.021-0.004-0-0.009-0.002-0.012-0.004-0.065-0.045-0.12-0.096-0.168-0.152-0.049-0.056-0.090-0.116-0.129-0.178s-0.074-0.127-0.104-0.196c-0.014-0.034-0.029-0.069-0.041-0.105-0.006-0.018-0.012-0.037-0.017-0.056-0.005-0.021-0.009-0.036-0.014-0.065-0.019-0.118 0.063-0.229 0.183-0.248s0.233 0.062 0.252 0.18c0.001 0.004 0.001 0.008 0.002 0.011l0.001 0.005z"></path>
<path fill="#000072" style="fill: var(--color1, #000072)" d="M24.371 23.336c-0.005 0.029-0.008 0.044-0.014 0.065-0.005 0.019-0.011 0.038-0.017 0.056-0.012 0.036-0.026 0.071-0.041 0.105-0.030 0.068-0.066 0.133-0.104 0.196s-0.080 0.123-0.129 0.178c-0.048 0.056-0.104 0.107-0.169 0.152-0.010 0.007-0.024 0.005-0.031-0.005-0.003-0.004-0.004-0.008-0.004-0.012v-0c-0.004-0.078 0-0.149 0.007-0.218s0.016-0.135 0.024-0.201l0.022-0.193 0.018-0.173 0-0.005c0.012-0.119 0.12-0.206 0.241-0.193s0.209 0.118 0.197 0.237c-0 0.004-0.001 0.008-0.002 0.012z"></path>
<path fill="#0096f2" style="fill: var(--color3, #0096f2)" d="M8.247 25.429c0 0-1.008-0.768-1.287-2.118 0 0-0.58-0.288-0.981 0.491 0 0 0.462 2.378 2.712 3.53 0 0-0.325-1.224-0.444-1.903z"></path>
<path fill="#000072" style="fill: var(--color1, #000072)" d="M6.212 23.833c0.091 0.363 0.58 2.021 2.136 3.048-0.098-0.392-0.229-0.935-0.304-1.336-0.233-0.199-0.993-0.918-1.272-2.067-0.127-0.021-0.355 0.004-0.56 0.355zM8.691 27.548c-0.035 0-0.070-0.008-0.102-0.024-2.317-1.187-2.807-3.58-2.826-3.681-0.009-0.047-0.002-0.095 0.020-0.138 0.25-0.486 0.578-0.624 0.808-0.654 0.255-0.034 0.447 0.057 0.468 0.068 0.060 0.030 0.103 0.085 0.116 0.15 0.258 1.25 1.197 1.983 1.206 1.99 0.043 0.033 0.072 0.081 0.082 0.134 0.116 0.662 0.437 1.873 0.44 1.885 0.022 0.083-0.008 0.171-0.076 0.224-0.040 0.031-0.088 0.047-0.137 0.047z"></path>
<path fill="#0096f2" style="fill: var(--color3, #0096f2)" d="M22.868 25.429c0 0 1.008-0.768 1.287-2.118 0 0 0.58-0.288 0.981 0.491 0 0-0.462 2.378-2.712 3.53 0 0 0.325-1.224 0.444-1.903z"></path>
<path fill="#000072" style="fill: var(--color1, #000072)" d="M23.069 25.544c-0.075 0.401-0.205 0.944-0.304 1.336 1.556-1.026 2.045-2.684 2.136-3.048-0.124-0.213-0.271-0.332-0.437-0.354-0.047-0.006-0.089-0.004-0.124 0.002-0.28 1.148-1.038 1.865-1.271 2.064zM22.422 27.548c-0.049 0-0.097-0.016-0.137-0.047-0.068-0.053-0.098-0.141-0.076-0.224 0.003-0.012 0.324-1.223 0.44-1.885 0.009-0.053 0.038-0.101 0.082-0.134 0.009-0.007 0.948-0.74 1.206-1.99 0.013-0.065 0.056-0.12 0.117-0.15 0.021-0.011 0.213-0.101 0.468-0.068 0.23 0.030 0.558 0.168 0.808 0.654 0.022 0.043 0.029 0.091 0.020 0.138-0.020 0.101-0.509 2.494-2.826 3.681-0.032 0.016-0.067 0.024-0.102 0.024z"></path>
<path fill="#0096f2" style="fill: var(--color3, #0096f2)" d="M11.285 19.904c0 0 0.378 1.054 0.27 2.591l1.247 1.066c0 0 0.326-1.857-0.229-3.4l-1.287-0.257z"></path>
<path fill="#000072" style="fill: var(--color1, #000072)" d="M11.777 22.402l0.853 0.729c0.058-0.593 0.107-1.755-0.23-2.783l-0.81-0.162c0.105 0.428 0.244 1.215 0.187 2.216zM12.797 23.777c-0.052 0-0.104-0.018-0.145-0.053l-1.247-1.066c-0.052-0.045-0.080-0.11-0.075-0.178 0.104-1.469-0.254-2.494-0.258-2.504-0.026-0.073-0.010-0.155 0.042-0.214s0.132-0.085 0.21-0.070l1.287 0.257c0.076 0.015 0.138 0.068 0.164 0.14 0.568 1.578 0.252 3.43 0.239 3.509-0.014 0.077-0.068 0.141-0.143 0.167-0.024 0.008-0.049 0.013-0.074 0.013z"></path>
<path fill="#0096f2" style="fill: var(--color3, #0096f2)" d="M19.828 19.904c0 0-0.378 1.054-0.27 2.591l-1.247 1.066c0 0-0.326-1.857 0.229-3.4l1.287-0.257z"></path>
<path fill="#000072" style="fill: var(--color1, #000072)" d="M18.71 20.348c-0.337 1.030-0.288 2.191-0.23 2.783l0.853-0.729c-0.058-1.001 0.082-1.788 0.187-2.216l-0.81 0.162zM18.313 23.777c-0.025 0-0.050-0.004-0.074-0.013-0.075-0.026-0.13-0.090-0.143-0.167-0.014-0.078-0.329-1.931 0.238-3.509 0.026-0.072 0.088-0.125 0.164-0.14l1.287-0.257c0.078-0.016 0.158 0.011 0.21 0.070s0.068 0.14 0.042 0.214c-0.006 0.016-0.361 1.039-0.258 2.504 0.005 0.068-0.023 0.134-0.075 0.178l-1.247 1.066c-0.041 0.035-0.092 0.053-0.145 0.053z"></path>
<path fill="#b11313" style="fill: var(--color2, #b11313)" d="M14.312 30.040c-0.314 1.513-2.102 2.206-3.359 1.278-0.984-0.726-2.064-2.385-2.732-6.023-0.063-0.349-0.124-0.716-0.18-1.102l3.242-3.019c0 0 2.775 4.219 3.082 7.454v0.001c0.048 0.501 0.037 0.978-0.053 1.412z"></path>
<path fill="#000072" style="fill: var(--color1, #000072)" opacity="0.027000810008100035" d="M14.311 30.040c-0.314 1.513-2.102 2.206-3.359 1.278-0.984-0.726-2.064-2.385-2.732-6.023-0.939-0.556-1.262-1.985-1.262-1.985-0.405-1.898 0.062-3.647 0.062-3.647-0.089 2.31 0.844 3.412 1.229 3.765 0.107 0.099 0.182 0.226 0.215 0.366 0 0.001 0 0.002 0.001 0.002 0.688 2.989 1.84 6.631 3.511 6.892 1.614 0.251 2.309-1.813 2.387-2.061 0.048 0.501 0.037 0.978-0.053 1.412z"></path>
<path fill="#000072" style="fill: var(--color1, #000072)" d="M11.526 20.972c0.321 0.343 0.574 0.726 0.804 1.121 0.114 0.198 0.218 0.401 0.322 0.605s0.205 0.408 0.303 0.614c0.395 0.824 0.755 1.666 1.054 2.534 0.299 0.867 0.54 1.762 0.628 2.695 0.042 0.465 0.045 0.942-0.036 1.419-0.017 0.117-0.043 0.243-0.082 0.364-0.036 0.122-0.086 0.239-0.141 0.355-0.114 0.229-0.266 0.439-0.447 0.622-0.366 0.361-0.85 0.604-1.363 0.676-0.256 0.039-0.519 0.031-0.774-0.014-0.255-0.048-0.501-0.137-0.726-0.261-0.11-0.064-0.221-0.134-0.317-0.212l-0.143-0.116c-0.049-0.038-0.090-0.082-0.135-0.123-0.044-0.042-0.090-0.082-0.131-0.126l-0.123-0.133c-0.085-0.087-0.155-0.183-0.231-0.275-0.294-0.376-0.528-0.786-0.734-1.203-0.209-0.417-0.369-0.851-0.524-1.284-0.144-0.437-0.275-0.877-0.382-1.321-0.053-0.222-0.11-0.444-0.154-0.668-0.045-0.224-0.098-0.446-0.131-0.671-0.072-0.45-0.106-0.906-0.066-1.368 0.002-0.026 0.026-0.046 0.052-0.043 0.019 0.002 0.034 0.013 0.041 0.029l0.001 0.001c0.092 0.215 0.161 0.432 0.22 0.65s0.12 0.435 0.166 0.654c0.044 0.22 0.096 0.438 0.145 0.656 0.046 0.219 0.106 0.435 0.162 0.651 0.113 0.433 0.247 0.858 0.393 1.279 0.157 0.416 0.317 0.831 0.522 1.221 0.2 0.392 0.429 0.768 0.697 1.107 0.069 0.082 0.134 0.17 0.21 0.245l0.11 0.117c0.037 0.039 0.078 0.073 0.116 0.11 0.040 0.035 0.077 0.074 0.118 0.106l0.124 0.098c0.082 0.066 0.166 0.117 0.254 0.167 0.177 0.095 0.368 0.163 0.565 0.198 0.197 0.032 0.4 0.038 0.599 0.006 0.398-0.058 0.772-0.252 1.054-0.532 0.14-0.141 0.258-0.303 0.347-0.479 0.042-0.089 0.082-0.18 0.11-0.276 0.031-0.094 0.051-0.191 0.067-0.297 0.071-0.415 0.072-0.849 0.034-1.282s-0.117-0.868-0.219-1.299c-0.101-0.431-0.227-0.858-0.367-1.281-0.281-0.847-0.625-1.677-1.005-2.491-0.095-0.204-0.192-0.406-0.292-0.608s-0.204-0.401-0.3-0.604c-0.195-0.406-0.379-0.818-0.524-1.253l-0-0.001c-0.014-0.041 0.009-0.085 0.051-0.099 0.031-0.010 0.063-0 0.084 0.021z"></path>
<path fill="#000072" style="fill: var(--color1, #000072)" d="M8.838 28.031c-0.059 0-0.118-0.023-0.162-0.070-0.082-0.088-0.077-0.224 0.012-0.305 0.082-0.074 2.035-1.819 5.025-2.039 0.121-0.009 0.227 0.080 0.236 0.2s-0.082 0.223-0.203 0.232c-2.831 0.208-4.74 1.908-4.759 1.925-0.042 0.038-0.096 0.057-0.149 0.057z"></path>
<path fill="#b11313" style="fill: var(--color2, #b11313)" d="M16.8 30.041c0.314 1.513 2.102 2.206 3.359 1.278 0.984-0.726 2.064-2.385 2.732-6.024 0.064-0.349 0.124-0.716 0.18-1.102l-3.241-3.019c0 0-2.775 4.219-3.082 7.454v0.001c-0.048 0.501-0.037 0.978 0.053 1.412z"></path>
<path fill="#000072" style="fill: var(--color1, #000072)" opacity="0.027000810008100035" d="M16.793 30.040c0.314 1.513 2.102 2.206 3.359 1.278 0.984-0.726 2.064-2.385 2.732-6.023 0.939-0.556 1.262-1.985 1.262-1.985 0.405-1.898-0.062-3.647-0.062-3.647 0.089 2.31-0.844 3.412-1.229 3.765-0.107 0.099-0.182 0.226-0.215 0.366-0 0.001-0 0.002-0.001 0.002-0.688 2.989-1.84 6.631-3.511 6.892-1.614 0.251-2.309-1.813-2.387-2.061-0.048 0.501-0.037 0.978 0.053 1.412z"></path>
<path fill="#000072" style="fill: var(--color1, #000072)" d="M19.721 21.051c-0.145 0.436-0.329 0.848-0.524 1.253-0.097 0.203-0.201 0.402-0.3 0.604s-0.197 0.404-0.292 0.608c-0.38 0.814-0.724 1.645-1.005 2.491-0.14 0.423-0.267 0.85-0.367 1.281s-0.18 0.865-0.219 1.298c-0.038 0.433-0.038 0.868 0.034 1.282 0.016 0.106 0.036 0.203 0.067 0.297 0.028 0.095 0.068 0.186 0.11 0.276 0.089 0.177 0.207 0.339 0.347 0.479 0.281 0.28 0.656 0.474 1.054 0.532 0.198 0.033 0.401 0.026 0.599-0.006 0.197-0.035 0.388-0.103 0.565-0.198 0.088-0.051 0.172-0.102 0.254-0.167l0.124-0.098c0.042-0.032 0.079-0.071 0.119-0.106 0.038-0.037 0.079-0.071 0.116-0.11l0.11-0.117c0.076-0.075 0.14-0.163 0.209-0.246 0.268-0.339 0.497-0.715 0.697-1.107 0.204-0.391 0.365-0.806 0.522-1.221 0.146-0.42 0.281-0.846 0.393-1.279 0.056-0.217 0.115-0.432 0.162-0.651 0.049-0.219 0.1-0.436 0.145-0.656 0.046-0.219 0.107-0.436 0.166-0.654s0.129-0.435 0.221-0.65l0.001-0.001c0.010-0.024 0.039-0.036 0.063-0.026 0.017 0.007 0.028 0.023 0.029 0.040 0.040 0.462 0.006 0.919-0.066 1.368-0.033 0.226-0.086 0.448-0.131 0.671-0.043 0.224-0.101 0.445-0.154 0.668-0.108 0.444-0.239 0.884-0.382 1.321-0.155 0.433-0.315 0.867-0.524 1.284-0.206 0.417-0.44 0.827-0.734 1.203-0.076 0.092-0.146 0.189-0.231 0.275l-0.123 0.133c-0.041 0.044-0.088 0.084-0.131 0.126-0.045 0.041-0.087 0.085-0.135 0.123l-0.143 0.116c-0.096 0.078-0.207 0.148-0.317 0.212-0.225 0.124-0.471 0.214-0.726 0.261-0.255 0.044-0.518 0.053-0.774 0.014-0.513-0.071-0.997-0.315-1.363-0.676-0.181-0.182-0.333-0.393-0.447-0.622-0.055-0.115-0.105-0.233-0.141-0.355-0.039-0.121-0.065-0.247-0.082-0.364-0.081-0.477-0.078-0.953-0.036-1.419 0.088-0.932 0.329-1.828 0.628-2.695s0.659-1.71 1.054-2.534c0.099-0.206 0.2-0.411 0.303-0.614s0.208-0.407 0.322-0.605c0.23-0.395 0.483-0.778 0.804-1.121 0.030-0.032 0.080-0.034 0.113-0.005 0.024 0.021 0.031 0.054 0.022 0.082l-0.001 0.002z"></path>
<path fill="#000072" style="fill: var(--color1, #000072)" d="M22.275 28.031c-0.053 0-0.107-0.019-0.149-0.057-0.019-0.017-1.927-1.717-4.759-1.925-0.121-0.009-0.212-0.113-0.203-0.232s0.115-0.209 0.236-0.199c2.99 0.22 4.943 1.965 5.025 2.039 0.089 0.081 0.095 0.218 0.012 0.305-0.043 0.046-0.102 0.070-0.162 0.070z"></path>
<path fill="#751313" style="fill: var(--color4, #751313)" d="M15.559 19.085c5.758 0 8.044-2.471 8.044-2.471s0.096 0.213 0.143 0.515c0.077 0.501-0.139 1.003-0.551 1.307-0.906 0.669-3.213 1.942-7.639 1.942s-6.733-1.274-7.639-1.942c-0.412-0.304-0.629-0.806-0.551-1.307 0.047-0.302 0.143-0.515 0.143-0.515s2.286 2.471 8.044 2.471z"></path>
<path fill="#000072" style="fill: var(--color1, #000072)" opacity="0.027000810008100035" d="M23.727 17.013c-0.074 0.314-0.26 0.599-0.53 0.799-0.906 0.669-3.213 1.942-7.639 1.942s-6.733-1.274-7.639-1.942c-0.271-0.2-0.456-0.485-0.53-0.799-0.008 0.037-0.015 0.075-0.021 0.116-0.077 0.501 0.139 1.003 0.551 1.307 0.906 0.669 3.213 1.942 7.639 1.942s6.733-1.274 7.639-1.942c0.412-0.304 0.629-0.806 0.551-1.307-0.006-0.040-0.013-0.079-0.021-0.116z"></path>
<path fill="#000072" style="fill: var(--color1, #000072)" d="M15.556 20.595c-4.42 0-6.766-1.244-7.771-1.986-0.482-0.356-0.726-0.935-0.637-1.512 0.051-0.327 0.155-0.561 0.159-0.57 0.030-0.067 0.093-0.114 0.166-0.126s0.148 0.014 0.198 0.068c0.022 0.024 2.305 2.4 7.882 2.4v0.433c-4.763 0-7.18-1.65-7.94-2.293-0.011 0.047-0.021 0.099-0.030 0.154-0.065 0.42 0.114 0.842 0.466 1.102 0.961 0.709 3.215 1.899 7.506 1.899s6.545-1.19 7.507-1.899c0.352-0.26 0.531-0.682 0.466-1.102-0.008-0.055-0.019-0.106-0.030-0.154-0.76 0.643-3.176 2.293-7.94 2.293v-0.433c5.596 0 7.859-2.376 7.881-2.4 0.050-0.054 0.125-0.080 0.198-0.068s0.136 0.059 0.166 0.126c0.004 0.010 0.109 0.243 0.159 0.57 0.089 0.577-0.155 1.157-0.637 1.512-1.005 0.742-3.351 1.986-7.771 1.986z"></path>
<path fill="#000072" style="fill: var(--color1, #000072)" d="M15.296 21.684c-0.001 0.019-0.013 0.036-0.021 0.055s-0.015 0.038-0.021 0.057c-0.017 0.050-0.033 0.099-0.032 0.163 0.059 0.008 0.132 0.002 0.185-0.005 0.029 0.013 0.047 0.032 0.074 0.046-0.005-0.024 0.019-0.029 0.040-0.036-0.009 0.010-0.023 0.017-0.018 0.037 0.012 0.005 0.014-0.009 0.024-0.011 0.014 0.010 0.031 0.010 0.045 0 0.010 0.001 0.007 0.012 0.018 0.012 0.016-0.014-0.007-0.029-0.013-0.039 0.020 0.007 0.042 0.012 0.040 0.034 0.021-0.009 0.047-0.030 0.069-0.044 0.055 0.008 0.126 0.011 0.191 0.007-0.002-0.108-0.041-0.191-0.079-0.275 0.011-0.001 0.011 0.008 0.013 0.012 0.039 0.057 0.074 0.122 0.103 0.192 0.004 0.010 0.011 0.024 0.016 0.037 0.004 0.012 0.013 0.032 0.011 0.039-0.005 0.015-0.040 0.019-0.048 0.032-0.022-0.017-0.085-0.012-0.145-0.014-0.017-0.001-0.040-0.004-0.050-0.002-0.023 0.004-0.033 0.027-0.045 0.039 0.033 0.002 0.058-0.020 0.087-0.021 0.018-0.001 0.045 0.008 0.069 0.012 0.068 0.012 0.144 0.022 0.206 0.035 0.004-0.143-0.051-0.262-0.124-0.359 0.073 0.068 0.122 0.147 0.159 0.24 0.006 0.016 0.012 0.031 0.016 0.048 0.006 0.023 0.006 0.052 0.024 0.069-0.022 0.016-0.048 0.029-0.071 0.044-0.065-0.026-0.191-0.064-0.296-0.057-0.025 0.002-0.048 0.010-0.066 0.021 0.032 0.009 0.055 0.009 0.098 0.009 0.011-0 0.026-0.003 0.034-0.002 0.009 0.002 0.024 0.014 0.037 0.023 0.076 0.051 0.145 0.089 0.235 0.13 0.028 0.013 0.044 0.026 0.077 0.009 0.005 0.169-0.061 0.293-0.143 0.407-0.009 0.013-0.015 0.029-0.032 0.039 0.061-0.097 0.108-0.213 0.108-0.348 0-0.014 0.004-0.032 0-0.044-0.006-0.018-0.047-0.037-0.071-0.051-0.068-0.042-0.123-0.072-0.198-0.112-0.015-0.008-0.027-0.018-0.040-0.021s-0.033-0.004-0.048-0.005c-0.018-0.002-0.035-0.003-0.050-0.004 0.029 0.021 0.076 0.047 0.116 0.067 0.007 0.005 0.015-0.002 0.024-0.002 0.010 0.198-0.012 0.392-0.095 0.536-0.020 0.035-0.042 0.068-0.077 0.094 0.113-0.137 0.121-0.371 0.098-0.577 0.024-0.014 0.014-0.026-0.008-0.043-0.023-0.019-0.065-0.046-0.093-0.055-0.002 0.009 0.003 0.018 0.008 0.027s0.017 0.016 0.018 0.023c0.004 0.016-0.006 0.051-0.011 0.069-0.016 0.061-0.051 0.129-0.082 0.174-0.011-0.001-0.003-0.014-0.011-0.018-0.012 0-0.005 0.014-0.011 0.018-0.036-0.042-0.067-0.111-0.085-0.174-0.006-0.023-0.016-0.050-0.011-0.069 0.004-0.015 0.029-0.029 0.027-0.048-0.024 0.004-0.047 0.020-0.066 0.034s-0.039 0.029-0.053 0.044c0.002 0.008 0.013 0.009 0.016 0.016-0.017 0.208-0.017 0.443 0.101 0.577-0.012-0.001-0.018-0.012-0.024-0.018-0.109-0.117-0.139-0.298-0.151-0.485-0.003-0.041-0.005-0.082 0.003-0.123 0.002-0.009 0.016 0.004 0.024-0.002 0.042-0.021 0.079-0.045 0.119-0.067-0.035 0.004-0.072 0.002-0.103 0.011-0.027 0.007-0.056 0.027-0.082 0.041-0.078 0.043-0.159 0.089-0.225 0.137-0.013 0.159 0.041 0.286 0.106 0.398-0.094-0.123-0.181-0.26-0.172-0.446 0.036 0.023 0.090-0.014 0.119-0.028 0.080-0.039 0.166-0.090 0.227-0.133 0.045 0.004 0.097 0.001 0.135-0.005-0.047-0.040-0.167-0.020-0.238-0.005-0.048 0.010-0.093 0.024-0.122 0.039-0.027-0.012-0.049-0.029-0.074-0.043 0.019-0.032 0.023-0.085 0.037-0.121 0.035-0.088 0.089-0.166 0.156-0.238-0.002 0.014-0.016 0.025-0.024 0.037-0.058 0.087-0.096 0.194-0.098 0.32 0.061-0.009 0.134-0.021 0.206-0.034 0.024-0.004 0.048-0.013 0.066-0.012 0.029 0.001 0.057 0.021 0.090 0.021-0.008-0.017-0.023-0.029-0.040-0.039-0.055 0.004-0.115-0.002-0.164 0.004-0.005 0.001-0.011 0.003-0.019 0.005 0.001-0-0.016 0.007-0.013 0.007-0.011-0-0.038-0.026-0.050-0.028 0.025-0.109 0.083-0.197 0.137-0.286z"></path>
<path fill="#000072" style="fill: var(--color1, #000072)" d="M15.557 20.595v0z"></path>
<path fill="#000072" style="fill: var(--color1, #000072)" d="M8.986 27.973c0 0 2.054-2.121 4.651-1.916l0.59 1.781c0 0-0.638 2.644-4.66 1.753l-0.581-1.617z"></path>
<path fill="#000072" style="fill: var(--color1, #000072)" d="M16.792 28.276l0.605-2.526 2.851 0.851 1.698 0.947v0.728l-0.399 1.315c0 0-2.854 0.923-4.755-1.315z"></path>
<path fill="#000072" style="fill: var(--color1, #000072)" d="M5.741 27.622c-0.083 0.185 0.238 3.093 0.238 3.093h4.007l-0.085-0.215-0.914-1.712-0.572-1.609c-1.296-0.181-2.569-3.163-2.569-3.163l-0.902 0.942 0.223 0.513 0.422 0.959 0.152 1.192z"></path>
<path fill="#000072" style="fill: var(--color1, #000072)" d="M22.829 27.132l1.288-1.219 1.013-1.688 0.125-0.375 0.85 0.925 0.067 0.46-0.461 0.514-0.252 0.631-0.107 0.751v0.403l-0.009 0.269c0 0-0.44 2.036-0.214 2.838l-3.922 0.096-0.128-0.238 0.641-1.222 0.703-1.622 0.406-0.524z"></path>
<path fill="#ff850b" style="fill: var(--color5, #ff850b)" d="M15.514 2.83c5.4 0 9.554 5.52 9.554 10.13s-7.614 6.472-9.554 6.563c-1.94 0.091-9.95-2.089-9.95-6.698s4.55-9.995 9.95-9.995z"></path>
<path fill="#fff" style="fill: var(--color6, #fff)" opacity="0.125" d="M15.514 2.829c3.319 0 6.167 2.086 7.869 4.763 0.018 0.087 0.035 0.173 0.050 0.261-1.554-2.238-3.978-3.713-6.661-4.111 0.172 0.064 0.272 0.14 0.272 0.221 0 0.227-0.78 0.412-1.742 0.412s-1.742-0.184-1.742-0.412c0-0.081 0.1-0.157 0.272-0.221-2.684 0.398-5.107 1.874-6.661 4.111l0.009-0.047c1.792-2.784 4.891-4.977 8.337-4.977z"></path>
<path fill="#fff" style="fill: var(--color6, #fff)" d="M24.811 14.375c-1.343 3.58-7.57 5.066-9.297 5.147-1.71 0.080-8.133-1.604-9.634-5.16 0.115-1.937 1.117-2.466 2.97-1.52 0.762 0.389 1.537 0.795 2.151 0.486 3.506-1.765 5.646-1.432 8.046 0 1.122 0.67 2.217-0.329 2.904-0.634 2.188-0.97 3.192-0.292 2.86 1.681z"></path>
<path fill="#000072" style="fill: var(--color1, #000072)" opacity="0.027000810008100035" d="M25.026 12.154c0.027 0.271 0.042 0.539 0.042 0.805 0 0.17-0.011 0.335-0.031 0.498l0.002-0.049c-0.267 3.076-6.573 5.425-9.966 5.615-2.832 0.158-8.489-2.836-9.44-5.615 0.002 0.058 0.005 0.115 0.007 0.173-0.048-0.245-0.075-0.497-0.075-0.757 0-0.207 0.010-0.416 0.027-0.626l0.015-0.045c2.211 3.122 5.838 4.984 9.71 4.984s7.499-1.862 9.709-4.983z"></path>
<path fill="#000072" style="fill: var(--color1, #000072)" d="M12.022 10.681c-0.302-0.132-0.611-0.354-0.927-0.664-0.548 0.024-0.986 0.599-0.986 1.304 0 0.721 0.457 1.305 1.022 1.305s1.022-0.584 1.022-1.305c0-0.232-0.048-0.45-0.131-0.639z"></path>
<path fill="#000072" style="fill: var(--color1, #000072)" d="M20.598 9.453c-0.369 0.481-0.731 0.853-1.087 1.115-0.524 0.387-1.091 0.454-1.154 0.029 0.282-0.032 0.575-0.16 0.881-0.386 0.753-0.556 0.988-0.913 1.36-0.758z"></path>
<path fill="#000072" style="fill: var(--color1, #000072)" d="M18.879 10.681c0.302-0.132 0.611-0.354 0.927-0.664 0.548 0.024 0.986 0.599 0.986 1.304 0 0.721-0.457 1.305-1.022 1.305s-1.022-0.584-1.022-1.305c0-0.232 0.048-0.45 0.131-0.639z"></path>
<path fill="#fff" style="fill: var(--color6, #fff)" d="M19.345 10.988c-0.166 0-0.3 0.141-0.3 0.314s0.134 0.314 0.3 0.314c0.166 0 0.3-0.141 0.3-0.314s-0.134-0.314-0.3-0.314z"></path>
<path fill="#000072" style="fill: var(--color1, #000072)" d="M15.32 11.55c0.731 0 1.323 0.388 1.323 0.866s-0.592 0.866-1.323 0.866c-0.731 0-1.323-0.388-1.323-0.866s0.592-0.866 1.323-0.866z"></path>
<path fill="#000072" style="fill: var(--color1, #000072)" d="M16.582 14.344c-0.466 0-0.916-0.17-1.262-0.474-0.386 0.345-0.918 0.506-1.441 0.424-0.608-0.095-1.123-0.504-1.345-1.067-0.045-0.115 0.013-0.245 0.131-0.29s0.25 0.013 0.295 0.128c0.163 0.415 0.543 0.717 0.991 0.786s0.904-0.101 1.19-0.446c0.043-0.051 0.107-0.082 0.174-0.082s0.132 0.028 0.176 0.079c0.299 0.344 0.75 0.527 1.21 0.489s0.874-0.292 1.11-0.68c0.065-0.106 0.205-0.141 0.313-0.077s0.143 0.201 0.079 0.307c-0.311 0.512-0.858 0.847-1.463 0.897-0.053 0.004-0.105 0.007-0.157 0.007z"></path>
<path fill="#000072" style="fill: var(--color1, #000072)" d="M15.319 13.547c0.476 0.444 0.943 0.633 1.402 0.567 0.114 2.928-2.908 2.808-2.805-0.041 0.563 0.070 1.030-0.105 1.403-0.525z"></path>
<path fill="#000072" style="fill: var(--color1, #000072)" d="M14.144 14.312c0.023 0.746 0.292 1.332 0.741 1.593 0.296 0.172 0.631 0.175 0.919 0.007 0.429-0.251 0.677-0.814 0.692-1.561-0.388-0.012-0.778-0.177-1.165-0.493-0.333 0.302-0.727 0.455-1.177 0.455-0.003 0-0.007 0-0.010-0zM15.354 16.483c-0.24 0-0.481-0.064-0.702-0.193-0.65-0.378-1.001-1.189-0.963-2.226l0.009-0.245 0.248 0.031c0.487 0.061 0.88-0.087 1.202-0.45l0.157-0.177 0.173 0.161c0.426 0.398 0.823 0.564 1.212 0.507l0.252-0.036 0.010 0.25c0.040 1.030-0.293 1.829-0.913 2.192-0.213 0.124-0.448 0.187-0.684 0.187z"></path>
<path fill="#f06" style="fill: var(--color7, #f06)" d="M15.344 15.166c-0.406 0-0.788 0.191-1.027 0.514 0.549 0.768 1.523 0.781 2.048-0.007-0.239-0.319-0.618-0.507-1.022-0.507z"></path>
<path fill="#000072" style="fill: var(--color1, #000072)" d="M14.611 15.685c0.212 0.229 0.478 0.353 0.754 0.351 0.267-0.004 0.513-0.128 0.707-0.352-0.193-0.186-0.456-0.293-0.73-0.293-0.275 0-0.538 0.108-0.731 0.295zM15.35 16.484c-0.47 0-0.914-0.245-1.222-0.676l-0.094-0.131 0.096-0.13c0.281-0.38 0.733-0.606 1.211-0.606 0.474 0 0.924 0.224 1.205 0.598l0.094 0.125-0.087 0.13c-0.286 0.43-0.717 0.68-1.182 0.688-0.007 0-0.014 0-0.022 0z"></path>
<path fill="#ff850b" style="fill: var(--color5, #ff850b)" d="M23.956 8.268c-1.466-2.379-3.223-3.989-5.272-4.831 4.019-5.532 5.777-3.921 5.272 4.831z"></path>
<path fill="#fff" style="fill: var(--color6, #fff)" d="M18.337 8.558c0.338-0.136 0.679-0.087 0.761 0.11s-0.125 0.467-0.463 0.603c-0.338 0.136-0.679 0.087-0.761-0.11s0.125-0.467 0.463-0.603z"></path>
<path fill="#fff" style="fill: var(--color6, #fff)" d="M12.446 8.545c-0.338-0.136-0.679-0.087-0.761 0.11s0.125 0.467 0.463 0.603c0.338 0.136 0.679 0.087 0.761-0.11s-0.125-0.467-0.463-0.603z"></path>
<path fill="#fff" style="fill: var(--color6, #fff)" d="M11.283 10.988c-0.166 0-0.3 0.141-0.3 0.314s0.134 0.314 0.3 0.314c0.166 0 0.3-0.141 0.3-0.314s-0.134-0.314-0.3-0.314z"></path>
<path fill="#ff850b" style="fill: var(--color5, #ff850b)" d="M6.831 8.382c1.466-2.379 3.223-3.989 5.272-4.832-4.019-5.532-5.776-3.921-5.272 4.832z"></path>
<path fill="#000072" style="fill: var(--color1, #000072)" d="M8.451 0.562c-0.092 0-0.173 0.015-0.244 0.039-0.685 0.237-1.43 1.672-1.185 7.065 1.343-1.99 2.931-3.403 4.73-4.21-1.715-2.311-2.722-2.894-3.301-2.894zM6.644 9.117l-0.042-0.723c-0.298-5.16 0.164-7.771 1.453-8.216 1.010-0.349 2.394 0.712 4.233 3.242l0.166 0.229-0.264 0.108c-1.994 0.819-3.731 2.415-5.165 4.741l-0.381 0.619z"></path>
<path fill="#fff" style="fill: var(--color6, #fff)" opacity="0.2746173950701997" d="M11.595 3.775c0.166-0.081 0.334-0.156 0.504-0.226-2.491-3.428-4.113-4.112-4.866-2.054 0.802-1.447 2.256-0.688 4.362 2.279l0 0z"></path>
<path fill="#000072" style="fill: var(--color1, #000072)" d="M7.928 6.769c0.714-0.868 1.524-1.619 2.429-2.254-2.029-3.88-2.839-3.129-2.429 2.254z"></path>
<path fill="#000072" style="fill: var(--color1, #000072)" d="M8.451 2.301c-0.010 0-0.017 0.001-0.021 0.002-0.024 0.007-0.241 0.095-0.334 1.083-0.063 0.666-0.055 1.611 0.022 2.816 0.59-0.655 1.242-1.244 1.947-1.755-1.067-2.004-1.51-2.146-1.614-2.146zM7.744 7.35l-0.043-0.564c-0.312-4.096 0.131-4.782 0.605-4.913 0.567-0.157 1.241 0.603 2.255 2.541l0.090 0.172-0.161 0.113c-0.884 0.619-1.686 1.364-2.384 2.212l-0.362 0.44z"></path>
<path fill="#000072" style="fill: var(--color1, #000072)" opacity="0.027000810008100035" d="M8.19 2.207c-0.74 0.544-1.219 2.015-1.435 4.414 0.013 0.551 0.037 1.138 0.073 1.761 0.109-0.194 0.225-0.387 0.348-0.576l-0.009 0.047c0.591-0.886 1.228-1.654 1.908-2.304-0.398 0.369-0.773 0.766-1.125 1.191-0.007 0.008-0.014 0.017-0.021 0.025-0.001 0.001-0.001 0.001-0.002 0.002s-0.001 0.001-0.002 0.002c-0.198-2.608-0.11-4.129 0.264-4.562zM22.594 2.094c0.74 0.544 1.219 2.015 1.434 4.414-0.013 0.551-0.038 1.138-0.073 1.761-0.11-0.194-0.225-0.387-0.348-0.576l0.009 0.047c-0.591-0.886-1.227-1.654-1.908-2.304 0.398 0.369 0.773 0.766 1.125 1.191 0.007 0.008 0.014 0.017 0.021 0.025 0.001 0.001 0.001 0.002 0.002 0.002s0.001 0.001 0.002 0.002c0.198-2.608 0.11-4.129-0.264-4.562z"></path>
<path fill="#fff" style="fill: var(--color6, #fff)" opacity="0.2746173950701997" d="M19.186 3.662c-0.166-0.081-0.334-0.156-0.504-0.226 2.491-3.428 4.113-4.112 4.866-2.054-0.802-1.447-2.256-0.688-4.362 2.279l-0 0z"></path>
<path fill="#000072" style="fill: var(--color1, #000072)" d="M22.861 6.655c-0.715-0.868-1.524-1.619-2.429-2.254 2.029-3.88 2.839-3.129 2.429 2.254z"></path>
<path fill="#000072" style="fill: var(--color1, #000072)" d="M20.721 4.334c0.705 0.511 1.358 1.1 1.947 1.755 0.077-1.204 0.084-2.15 0.022-2.816-0.093-0.988-0.309-1.076-0.334-1.083-0.045-0.012-0.465-0.054-1.635 2.143zM23.042 7.237l-0.362-0.44c-0.698-0.848-1.5-1.593-2.384-2.212l-0.161-0.113 0.090-0.172c1.013-1.938 1.687-2.698 2.255-2.541 0.474 0.131 0.917 0.817 0.605 4.913l-0.043 0.564z"></path>
<path fill="#000072" style="fill: var(--color1, #000072)" d="M8.451 0.562c-0.092 0-0.173 0.015-0.244 0.039-0.685 0.237-1.43 1.672-1.185 7.065 1.343-1.99 2.931-3.403 4.73-4.21-1.714-2.311-2.722-2.894-3.301-2.894zM6.644 9.117l-0.042-0.722c-0.297-5.16 0.164-7.771 1.453-8.216 1.010-0.349 2.394 0.712 4.233 3.242l0.166 0.229-0.264 0.108c-1.994 0.819-3.731 2.415-5.165 4.741l-0.381 0.619z"></path>
<path fill="#000072" style="fill: var(--color1, #000072)" d="M15.517 3.053c-5.385 0-9.722 5.345-9.722 9.77 0 1.151 0.532 2.233 1.583 3.216 2.339 2.191 6.607 3.26 8.018 3.26 0.039 0 0.075-0.001 0.11-0.002 1.022-0.048 3.378-0.565 5.413-1.564 1.79-0.878 3.923-2.42 3.923-4.775 0-4.581-4.074-9.906-9.326-9.906zM15.402 19.748c-1.514 0-5.877-1.078-8.339-3.384-1.144-1.071-1.724-2.263-1.724-3.541 0-2.307 1.125-4.878 3.011-6.878 2.002-2.123 4.614-3.341 7.167-3.341 2.569 0 5.046 1.213 6.975 3.414 1.758 2.007 2.807 4.601 2.807 6.94 0 2.046-1.444 3.836-4.176 5.176-2.095 1.028-4.533 1.561-5.596 1.61-0.039 0.002-0.081 0.003-0.125 0.003z"></path>
<path fill="#fff" style="fill: var(--color6, #fff)" opacity="0.17561411840671998" d="M15.753 11.897c0.2 0.052 0.347 0.146 0.33 0.21s-0.193 0.075-0.393 0.023-0.347-0.146-0.33-0.21c0.017-0.065 0.193-0.075 0.393-0.023z"></path>
<path fill="#000072" style="fill: var(--color1, #000072)" d="M10.467 9.453c0.369 0.481 0.731 0.853 1.087 1.115 0.524 0.387 1.091 0.454 1.154 0.029-0.282-0.032-0.575-0.16-0.881-0.386-0.753-0.556-0.988-0.913-1.36-0.758z"></path>
<path fill="#000072" style="fill: var(--color1, #000072)" d="M19.036 3.343c1.799 0.806 3.387 2.22 4.73 4.21 0.245-5.393-0.5-6.828-1.185-7.065-0.523-0.18-1.56 0.178-3.545 2.855zM24.143 9.003l-0.381-0.619c-1.433-2.326-3.171-3.921-5.165-4.741l-0.264-0.108 0.166-0.229c1.838-2.53 3.223-3.591 4.233-3.242 1.289 0.445 1.75 3.056 1.453 8.216l-0.042 0.722z"></path>
</symbol>
</defs>
</svg>
